<svg xmlns="http://www.w3.org/2000/svg" xmlns:xlink="http://www.w3.org/1999/xlink" width="500" zoomAndPan="magnify" viewBox="0 0 375 323.999988" height="432" preserveAspectRatio="xMidYMid meet" version="1.0"><defs><clipPath id="180eb5f044"><path d="M 129.234375 84.875 L 226.433594 84.875 L 226.433594 182.074219 L 129.234375 182.074219 Z M 129.234375 84.875 " clip-rule="nonzero"/></clipPath><clipPath id="4d2d5d7dec"><path d="M 0.234375 0.875 L 97.433594 0.875 L 97.433594 98.074219 L 0.234375 98.074219 Z M 0.234375 0.875 " clip-rule="nonzero"/></clipPath><clipPath id="fd9df5be5f"><rect x="0" width="98" y="0" height="99"/></clipPath><clipPath id="bb0981727e"><path d="M 150.789062 84.875 L 247.988281 84.875 L 247.988281 182.074219 L 150.789062 182.074219 Z M 150.789062 84.875 " clip-rule="nonzero"/></clipPath><clipPath id="a1b386f881"><path d="M 0.789062 0.875 L 97.988281 0.875 L 97.988281 98.074219 L 0.789062 98.074219 Z M 0.789062 0.875 " clip-rule="nonzero"/></clipPath><clipPath id="2b2c20d55a"><rect x="0" width="98" y="0" height="99"/></clipPath><clipPath id="d8ba3a4e90"><path d="M 136.644531 130.003906 L 233.84375 130.003906 L 233.84375 227.203125 L 136.644531 227.203125 Z M 136.644531 130.003906 " clip-rule="nonzero"/></clipPath><clipPath id="805d1195e0"><path d="M 0.644531 0.00390625 L 97.84375 0.00390625 L 97.84375 97.203125 L 0.644531 97.203125 Z M 0.644531 0.00390625 " clip-rule="nonzero"/></clipPath><clipPath id="91e6469893"><rect x="0" width="98" y="0" height="98"/></clipPath><clipPath id="c5ac9fb35e"><path d="M 212.851562 136.269531 L 310.050781 136.269531 L 310.050781 233.46875 L 212.851562 233.46875 Z M 212.851562 136.269531 " clip-rule="nonzero"/></clipPath><clipPath id="22232e4ddf"><path d="M 0.851562 0.269531 L 98.050781 0.269531 L 98.050781 97.46875 L 0.851562 97.46875 Z M 0.851562 0.269531 " clip-rule="nonzero"/></clipPath><clipPath id="401f544b53"><rect x="0" width="99" y="0" height="98"/></clipPath><clipPath id="5c4a44cae6"><path d="M 0 0.109375 L 294.519531 0.109375 L 294.519531 323.882812 L 0 323.882812 Z M 0 0.109375 " clip-rule="nonzero"/></clipPath><clipPath id="a6d95c86b3"><path d="M 169.09375 36.046875 L 374.996094 36.046875 L 374.996094 309.992188 L 169.09375 309.992188 Z M 169.09375 36.046875 " clip-rule="nonzero"/></clipPath></defs><g clip-path="url(#180eb5f044)"><g transform="matrix(1, 0, 0, 1, 129, 84)"><g clip-path="url(#fd9df5be5f)"><g clip-path="url(#4d2d5d7dec)"><path fill="#ac2b37" d="M 0.234375 0.875 L 97.433594 0.875 L 97.433594 98.074219 L 0.234375 98.074219 Z M 0.234375 0.875 " fill-opacity="1" fill-rule="nonzero"/></g></g></g></g><g clip-path="url(#bb0981727e)"><g transform="matrix(1, 0, 0, 1, 150, 84)"><g clip-path="url(#2b2c20d55a)"><g clip-path="url(#a1b386f881)"><path fill="#ac2b37" d="M 0.789062 0.875 L 97.988281 0.875 L 97.988281 98.074219 L 0.789062 98.074219 Z M 0.789062 0.875 " fill-opacity="1" fill-rule="nonzero"/></g></g></g></g><g clip-path="url(#d8ba3a4e90)"><g transform="matrix(1, 0, 0, 1, 136, 130)"><g clip-path="url(#91e6469893)"><g clip-path="url(#805d1195e0)"><path fill="#ac2b37" d="M 0.644531 0.00390625 L 97.84375 0.00390625 L 97.84375 97.203125 L 0.644531 97.203125 Z M 0.644531 0.00390625 " fill-opacity="1" fill-rule="nonzero"/></g></g></g></g><g clip-path="url(#c5ac9fb35e)"><g transform="matrix(1, 0, 0, 1, 212, 136)"><g clip-path="url(#401f544b53)"><g clip-path="url(#22232e4ddf)"><path fill="#ac2b37" d="M 0.851562 0.269531 L 98.050781 0.269531 L 98.050781 97.46875 L 0.851562 97.46875 Z M 0.851562 0.269531 " fill-opacity="1" fill-rule="nonzero"/></g></g></g></g><g clip-path="url(#5c4a44cae6)"><path fill="#cd3636" d="M 283.484375 245.796875 L 136.078125 321.667969 C 126.273438 326.714844 114.234375 322.855469 109.191406 313.046875 L 2.21875 105.09375 C -2.828125 95.285156 1.03125 83.246094 10.835938 78.195312 L 158.242188 2.324219 C 168.046875 -2.722656 180.085938 1.136719 185.128906 10.945312 L 292.105469 218.898438 C 297.148438 228.707031 293.292969 240.75 283.484375 245.796875 " fill-opacity="1" fill-rule="nonzero"/></g><path fill="#ede6e2" d="M 130.457031 310.734375 C 126.691406 312.667969 122.058594 311.183594 120.121094 307.417969 L 13.148438 99.46875 C 11.210938 95.703125 12.699219 91.066406 16.460938 89.132812 L 163.867188 13.257812 C 167.628906 11.324219 172.261719 12.808594 174.199219 16.574219 L 281.171875 224.527344 C 283.109375 228.285156 281.621094 232.925781 277.859375 234.859375 L 130.457031 310.734375 " fill-opacity="1" fill-rule="nonzero"/><path fill="#cd3636" d="M 112.175781 183.261719 C 134.832031 197.601562 168.621094 203.710938 168.621094 203.710938 C 168.621094 203.710938 183.386719 172.453125 184.808594 145.621094 L 184.917969 142.214844 C 184.984375 134.6875 183.871094 127.644531 180.921875 121.914062 C 174.171875 108.789062 158.058594 103.625 144.9375 110.378906 C 137.027344 114.449219 132.011719 121.925781 130.753906 130.097656 C 123.375 126.371094 114.375 126.109375 106.464844 130.183594 C 93.34375 136.9375 88.179688 153.050781 94.929688 166.175781 C 98.007812 172.160156 103.410156 177.34375 109.9375 181.792969 L 112.175781 183.261719 " fill-opacity="1" fill-rule="nonzero"/><path fill="#cd3636" d="M 56.429688 87.699219 L 67.761719 109.722656 C 68.742188 111.636719 69.5 113.304688 70.023438 114.722656 C 70.550781 116.144531 70.878906 117.691406 71.015625 119.363281 C 71.25 122.167969 70.597656 124.78125 69.066406 127.203125 C 67.53125 129.625 65.1875 131.648438 62.035156 133.273438 C 59.1875 134.738281 56.582031 135.511719 54.214844 135.589844 C 51.851562 135.671875 49.570312 135.007812 47.371094 133.601562 C 46.210938 132.84375 45.078125 131.867188 43.980469 130.667969 C 42.878906 129.46875 42.003906 128.238281 41.355469 126.976562 C 40.667969 125.640625 40.511719 124.425781 40.894531 123.332031 C 41.277344 122.242188 42.050781 121.398438 43.214844 120.796875 C 44.34375 120.214844 45.363281 120.105469 46.269531 120.457031 C 47.175781 120.8125 48.136719 121.601562 49.152344 122.820312 C 50.234375 124.125 51.164062 125.132812 51.941406 125.84375 C 52.71875 126.558594 53.652344 127.03125 54.738281 127.269531 C 55.828125 127.507812 57.082031 127.261719 58.496094 126.535156 C 62.261719 124.59375 62.722656 120.863281 59.878906 115.339844 L 47.917969 92.082031 C 47.03125 90.359375 46.742188 88.875 47.054688 87.628906 C 47.367188 86.378906 48.175781 85.421875 49.476562 84.75 C 50.792969 84.070312 52.0625 83.964844 53.277344 84.425781 C 54.496094 84.886719 55.546875 85.976562 56.429688 87.699219 " fill-opacity="1" fill-rule="nonzero"/><path fill="#cd3636" d="M 237.890625 236.292969 L 226.5625 214.269531 C 225.578125 212.355469 224.824219 210.691406 224.296875 209.269531 C 223.769531 207.847656 223.441406 206.300781 223.304688 204.628906 C 223.070312 201.824219 223.722656 199.210938 225.257812 196.789062 C 226.789062 194.367188 229.132812 192.34375 232.285156 190.71875 C 235.132812 189.253906 237.738281 188.480469 240.105469 188.402344 C 242.46875 188.320312 244.75 188.984375 246.949219 190.390625 C 248.109375 191.148438 249.242188 192.125 250.34375 193.324219 C 251.441406 194.523438 252.316406 195.753906 252.964844 197.015625 C 253.652344 198.351562 253.808594 199.566406 253.425781 200.660156 C 253.042969 201.75 252.269531 202.59375 251.105469 203.195312 C 249.976562 203.773438 248.960938 203.886719 248.050781 203.535156 C 247.144531 203.179688 246.183594 202.390625 245.167969 201.171875 C 244.085938 199.867188 243.15625 198.859375 242.378906 198.148438 C 241.605469 197.433594 240.671875 196.960938 239.582031 196.722656 C 238.492188 196.484375 237.242188 196.730469 235.824219 197.457031 C 232.0625 199.394531 231.597656 203.128906 234.441406 208.652344 L 246.40625 231.910156 C 247.289062 233.628906 247.578125 235.113281 247.265625 236.367188 C 246.953125 237.613281 246.144531 238.574219 244.847656 239.242188 C 243.527344 239.921875 242.261719 240.027344 241.042969 239.566406 C 239.828125 239.105469 238.773438 238.015625 237.890625 236.292969 " fill-opacity="1" fill-rule="nonzero"/><g clip-path="url(#a6d95c86b3)"><path fill="#383a3a" d="M 355.03125 309.96875 L 189.253906 309.96875 C 178.226562 309.96875 169.289062 301.027344 169.289062 289.996094 L 169.289062 56.128906 C 169.289062 45.097656 178.226562 36.160156 189.253906 36.160156 L 355.03125 36.160156 C 366.058594 36.160156 374.996094 45.097656 374.996094 56.128906 L 374.996094 289.996094 C 374.996094 301.027344 366.058594 309.96875 355.03125 309.96875 " fill-opacity="1" fill-rule="nonzero"/></g><path fill="#ede6e2" d="M 189.253906 297.671875 C 185.023438 297.671875 181.582031 294.230469 181.582031 289.996094 L 181.582031 56.128906 C 181.582031 51.898438 185.023438 48.453125 189.253906 48.453125 L 355.03125 48.453125 C 359.265625 48.453125 362.707031 51.898438 362.707031 56.128906 L 362.707031 289.996094 C 362.707031 294.230469 359.265625 297.671875 355.03125 297.671875 L 189.253906 297.671875 " fill-opacity="1" fill-rule="nonzero"/><path fill="#383a3a" d="M 212.160156 90.441406 L 224.425781 90.441406 L 218.238281 73.492188 Z M 228.632812 101.847656 L 226.667969 96.691406 L 209.972656 96.691406 L 208.011719 101.960938 C 207.246094 104.015625 206.59375 105.402344 206.050781 106.121094 C 205.511719 106.839844 204.625 107.199219 203.390625 107.199219 C 202.34375 107.199219 201.421875 106.816406 200.617188 106.050781 C 199.816406 105.285156 199.414062 104.414062 199.414062 103.445312 C 199.414062 102.882812 199.507812 102.304688 199.695312 101.707031 C 199.878906 101.109375 200.1875 100.277344 200.617188 99.214844 L 211.121094 72.539062 C 211.421875 71.773438 211.78125 70.855469 212.199219 69.777344 C 212.621094 68.703125 213.070312 67.8125 213.546875 67.101562 C 214.023438 66.390625 214.648438 65.820312 215.421875 65.378906 C 216.195312 64.941406 217.152344 64.71875 218.292969 64.71875 C 219.453125 64.71875 220.417969 64.941406 221.195312 65.378906 C 221.96875 65.820312 222.59375 66.382812 223.070312 67.074219 C 223.546875 67.765625 223.949219 68.507812 224.273438 69.300781 C 224.601562 70.097656 225.015625 71.15625 225.519531 72.484375 L 236.25 98.988281 C 237.089844 101.007812 237.511719 102.476562 237.511719 103.390625 C 237.511719 104.339844 237.113281 105.214844 236.320312 106.007812 C 235.527344 106.800781 234.570312 107.199219 233.449219 107.199219 C 232.792969 107.199219 232.234375 107.082031 231.769531 106.847656 C 231.300781 106.613281 230.910156 106.296875 230.589844 105.894531 C 230.273438 105.496094 229.933594 104.878906 229.570312 104.046875 C 229.203125 103.21875 228.890625 102.484375 228.632812 101.847656 " fill-opacity="1" fill-rule="nonzero"/><path fill="#383a3a" d="M 319.519531 255.683594 L 331.789062 255.683594 L 325.601562 272.632812 Z M 335.992188 244.277344 L 334.03125 249.433594 L 317.335938 249.433594 L 315.375 244.167969 C 314.609375 242.109375 313.957031 240.726562 313.414062 240.007812 C 312.875 239.289062 311.984375 238.925781 310.753906 238.925781 C 309.707031 238.925781 308.785156 239.308594 307.980469 240.074219 C 307.175781 240.84375 306.777344 241.710938 306.777344 242.679688 C 306.777344 243.242188 306.871094 243.820312 307.054688 244.421875 C 307.242188 245.015625 307.550781 245.847656 307.980469 246.910156 L 318.484375 273.585938 C 318.78125 274.355469 319.144531 275.273438 319.566406 276.347656 C 319.984375 277.421875 320.429688 278.3125 320.910156 279.023438 C 321.382812 279.734375 322.011719 280.308594 322.785156 280.746094 C 323.558594 281.1875 324.515625 281.40625 325.65625 281.40625 C 326.816406 281.40625 327.78125 281.1875 328.554688 280.746094 C 329.328125 280.308594 329.953125 279.742188 330.433594 279.050781 C 330.90625 278.359375 331.308594 277.617188 331.636719 276.824219 C 331.960938 276.03125 332.378906 274.972656 332.882812 273.644531 L 343.613281 247.136719 C 344.453125 245.121094 344.871094 243.652344 344.871094 242.738281 C 344.871094 241.785156 344.476562 240.914062 343.683594 240.117188 C 342.886719 239.324219 341.933594 238.925781 340.8125 238.925781 C 340.15625 238.925781 339.597656 239.042969 339.132812 239.277344 C 338.664062 239.511719 338.269531 239.828125 337.953125 240.230469 C 337.636719 240.628906 337.296875 241.246094 336.933594 242.078125 C 336.566406 242.910156 336.253906 243.644531 335.992188 244.277344 " fill-opacity="1" fill-rule="nonzero"/><path fill="#383a3a" d="M 313.707031 157.632812 L 312.097656 154.726562 C 298.890625 132.09375 272.140625 111.578125 272.140625 111.578125 C 272.140625 111.578125 245.570312 131.957031 232.320312 154.503906 L 231.035156 156.777344 C 227.359375 163.546875 224.988281 170.457031 224.988281 177.019531 C 224.988281 191.414062 236.652344 203.082031 251.042969 203.082031 C 256.792969 203.082031 262.097656 201.210938 266.40625 198.058594 C 266.535156 201.601562 266.296875 205.761719 265.242188 210.226562 C 262.671875 221.128906 256.648438 227.878906 252.417969 231.46875 C 251.308594 232.40625 251.847656 234.546875 253.191406 234.546875 L 291.09375 234.546875 C 292.441406 234.546875 292.980469 232.40625 291.871094 231.46875 C 287.636719 227.878906 281.617188 221.128906 279.042969 210.226562 C 277.988281 205.761719 277.75 201.601562 277.882812 198.058594 C 282.1875 201.210938 287.496094 203.082031 293.242188 203.082031 C 307.632812 203.082031 319.296875 191.414062 319.296875 177.019531 C 319.296875 170.730469 317.121094 164.128906 313.707031 157.632812 " fill-opacity="1" fill-rule="nonzero"/></svg>